<svg xmlns="http://www.w3.org/2000/svg" width="600" height="338" viewBox="0 0 158.75 89.429"><path d="M-.286.286h158.865v89.147H-.286z" style="fill:#1a3a5a;fill-rule:evenodd;stroke-width:.264583;fill-opacity:1"/><g style="fill:#fff"><path d="M22.7 9.71a1.72 1.72 0 0 1 2.59 0 1.004 1.004 0 0 0 1.42-1.42 3.74 3.74 0 0 0-5.42 0 1 1 0 0 0 1.41 1.42z" style="fill:#fff" transform="rotate(-90 56.57 -5.375) scale(.67665)"/><path d="M40 18.79V14a1 1 0 0 0-1-1h-5a1 1 0 0 0-1 1v1.68l-3-1.33V11.4C30 5.45 25.81.35 24.19 0 22.77-.25 18 4.88 18 11.4v2.95l-3 1.33V14a1 1 0 0 0-1-1H9a1 1 0 0 0-1 1v4.79l-7.41 3.3c-.8.35-.59.53-.59 6.91a1 1 0 0 0 1 1c.17 0-1 .24 17-3.75a42.49 42.49 0 0 0 .61 8.85c-.26.12.76-.62-8.21 6.1-.57.43-.4.76-.4 4.8a1 1 0 0 0 1 1c.19 0-.57.19 10-2.69V47a1 1 0 0 0 1 1h4a1 1 0 0 0 1-1v-2.69c10.46 2.85 10.06 2.9 10.61 2.48.55-.42.39-.5.39-4.79 0-.7.16-.38-8.4-6.8-.7-.52.4 1.29.4-9 18.1 4 17.09 4 17.63 3.53.54-.47.37-.26.37-6.73 0-.88 0-.64-8-4.21ZM35 15h3v2.91l-3-1.34Zm-15-3.6a12.25 12.25 0 0 1 4-9.06 12.25 12.25 0 0 1 4 9.06c0 18 .3 20-1 25.46a3 3 0 0 0-6 0c-1.28-5.37-1-7.43-1-25.46ZM10 15h3v1.57l-3 1.34zM2 27.75v-4.1l16-7.11v7.66zM12 42.5l7.05-5.28a37.35 37.35 0 0 0 1.61 5.11L12 44.69ZM23 46v-9a1 1 0 0 1 2 0v9zm13-3.5v2.19l-8.66-2.36A38.84 38.84 0 0 0 29 37.22Zm10-14.75L30 24.2v-7.66l16 7.11z" style="fill:#fff" transform="rotate(-90 56.57 -5.375) scale(.67665)"/></g><path d="m154.065 263.399 11.76-26.134h4.779L182.4 263.4h-5.077l-10.117-23.558h1.94l-10.08 23.558zm5.414-6.048 1.306-3.808h14.112l1.307 3.808zm30.09 6.048-8.55-19.936h4.854l7.355 17.584h-2.39l7.617-17.584h4.48l-8.55 19.936zm16.278 0v-19.936h4.666v19.936zm2.352-23.222q-1.307 0-2.166-.82-.821-.822-.821-1.98 0-1.194.821-1.978.859-.822 2.166-.822 1.306 0 2.128.784.858.747.858 1.904 0 1.232-.821 2.091-.821.821-2.165.821zm20.72 23.222v-4.032l-.262-.859v-7.056q0-2.053-1.232-3.173-1.232-1.158-3.733-1.158-1.68 0-3.323.523-1.605.523-2.725 1.456l-1.83-3.397q1.606-1.232 3.809-1.83 2.24-.634 4.629-.634 4.33 0 6.683 2.09 2.389 2.054 2.389 6.384V263.4zm-6.272.261q-2.24 0-3.92-.747-1.68-.784-2.614-2.128-.896-1.38-.896-3.098 0-1.68.784-3.024.822-1.344 2.65-2.128 1.83-.784 4.854-.784h5.787v3.098h-5.45q-2.39 0-3.211.784-.822.747-.822 1.867 0 1.27 1.008 2.016 1.008.747 2.8.747 1.718 0 3.062-.784 1.38-.784 1.978-2.315l.784 2.8q-.672 1.755-2.426 2.725-1.718.971-4.368.971zm17.098-.261v-26.134h4.854v22.027h13.664v4.107zm21.915 0v-19.936h4.667v19.936zm2.352-23.222q-1.307 0-2.165-.82-.822-.822-.822-1.98 0-1.194.822-1.978.858-.822 2.165-.822t2.128.784q.859.747.859 1.904 0 1.232-.822 2.091-.821.821-2.165.821zm8.437 23.222v-19.936h4.443v5.376l-.784-1.643q1.045-1.904 3.024-2.912 2.016-1.045 4.63-1.045 2.388 0 4.255.933 1.904.933 2.987 2.875 1.082 1.904 1.082 4.928v11.424h-4.666v-10.827q0-2.65-1.27-3.957-1.232-1.307-3.472-1.307-1.642 0-2.912.672-1.269.672-1.978 2.016-.672 1.307-.672 3.323v10.08zm34.981.261q-3.322 0-5.824-1.307-2.464-1.344-3.845-3.658-1.344-2.315-1.344-5.264 0-2.987 1.307-5.264 1.344-2.315 3.658-3.622 2.352-1.306 5.34-1.306 2.911 0 5.188 1.27 2.278 1.268 3.584 3.583 1.307 2.315 1.307 5.45 0 .3-.037.673 0 .373-.038.71h-16.613v-3.1h14.15l-1.83.971q.037-1.717-.71-3.024-.746-1.307-2.053-2.053-1.269-.747-2.949-.747-1.717 0-3.024.747-1.27.746-2.016 2.09-.71 1.307-.71 3.1v.746q0 1.792.822 3.173.821 1.381 2.315 2.128 1.493.747 3.434.747 1.68 0 3.024-.523t2.39-1.643l2.501 2.875q-1.344 1.568-3.397 2.427-2.016.821-4.63.821zm13.851-.261v-19.936h4.443v5.488l-.523-1.606q.896-2.016 2.8-3.06 1.941-1.046 4.816-1.046v4.442q-.299-.074-.56-.074-.261-.038-.523-.038-2.65 0-4.218 1.568-1.568 1.531-1.568 4.592v9.67z" aria-label="AviaLiner" style="font-weight:600;font-size:37.3333px;font-family:Montserrat;-inkscape-font-specification:&quot;Montserrat Semi-Bold&quot;;white-space:pre;fill:#fff" transform="matrix(.26458 0 0 .26458 16.971 -5.253)"/></svg>